<svg version="1.1" xmlns="http://www.w3.org/2000/svg" width="1024" height="1024">
<path d="M0,0 L1024,0 L1024,1024 L0,1024 Z " fill="#20074C" transform="translate(0,0)" data-index="0" style="opacity: 1;"></path>

<path d="M0,0 L2,4 L2,572 L-2,596 L-7,614 L-15,632 L-24,648 L-33,660 L-42,670 L-55,683 L-70,694 L-87,704 L-106,712 L-123,717 L-145,721 L-709,721 L-727,718 L-748,712 L-766,704 L-782,695 L-796,685 L-809,673 L-818,664 L-830,648 L-840,630 L-847,613 L-852,596 L-856,571 L-856,4 L-854,2 L-854,54 L-847,55 L-831,63 L-822,69 L-813,76 L-803,85 L-793,95 L-783,108 L-772,126 L-764,143 L-757,164 L-742,216 L-735,233 L-726,250 L-718,261 L-707,273 L-705,274 L-705,276 L-701,278 L-690,286 L-673,295 L-657,302 L-639,312 L-628,320 L-621,327 L-616,332 L-609,340 L-602,350 L-596,365 L-593,377 L-593,391 L-597,408 L-605,424 L-618,444 L-622,450 L-627,463 L-630,477 L-630,495 L-627,509 L-621,524 L-611,538 L-604,545 L-587,557 L-576,563 L-563,571 L-549,581 L-537,592 L-526,603 L-517,614 L-508,624 L-499,635 L-484,650 L-470,661 L-456,670 L-441,678 L-420,686 L-397,692 L-375,695 L-344,695 L-325,693 L-299,687 L-287,683 L-270,677 L-259,672 L-239,663 L-223,655 L-202,645 L-186,637 L-162,624 L-141,610 L-128,599 L-117,588 L-108,577 L-97,560 L-88,540 L-85,528 L-83,521 L-80,503 L-80,480 L-84,455 L-89,439 L-96,423 L-102,412 L-112,398 L-123,385 L-139,369 L-146,359 L-148,355 L-147,348 L-138,336 L-125,323 L-115,315 L-97,304 L-81,296 L-61,288 L-39,282 L-30,280 L-19,279 L0,279 Z " fill="#371162" transform="translate(939,225)" data-index="2" style="opacity: 1;"></path>
<path d="M0,0 L14,0 L30,5 L43,13 L53,22 L61,30 L70,44 L79,61 L88,86 L92,99 L92,103 L96,105 L106,113 L117,123 L126,134 L135,147 L144,164 L150,181 L153,193 L155,209 L155,233 L150,258 L145,271 L134,290 L123,304 L108,319 L93,330 L78,339 L57,349 L55,349 L55,316 L64,245 L66,230 L66,198 L63,183 L62,179 L59,208 L53,241 L45,273 L42,278 L30,288 L15,298 L-1,305 L-20,310 L-26,311 L-51,311 L-50,297 L-50,275 L-53,259 L-58,246 L-61,240 L-58,259 L-58,284 L-62,306 L-68,328 L-77,352 L-84,365 L-89,372 L-113,372 L-131,370 L-140,367 L-141,324 L-144,309 L-155,279 L-160,257 L-160,238 L-157,222 L-155,215 L-161,224 L-166,235 L-169,248 L-170,255 L-170,267 L-167,285 L-162,299 L-161,302 L-174,301 L-197,295 L-218,287 L-236,277 L-248,268 L-258,259 L-265,252 L-274,240 L-282,226 L-289,210 L-293,195 L-296,176 L-296,152 L-293,132 L-288,115 L-285,108 L-277,109 L-254,114 L-235,116 L-187,116 L-153,112 L-146,121 L-137,128 L-127,132 L-118,132 L-125,126 L-136,111 L-137,107 L-114,97 L-89,84 L-78,77 L-76,78 L-86,96 L-90,102 L-83,98 L-71,86 L-61,72 L-53,58 L-39,30 L-30,17 L-20,8 L-10,3 Z " fill="#FEA232" transform="translate(689,497)" data-index="3" style="opacity: 1;"></path>
<path d="M0,0 L8,0 L12,4 L14,8 L14,31 L9,48 L0,64 L-12,77 L-24,86 L-38,93 L-46,95 L-55,95 L-51,100 L-45,102 L-38,103 L-38,132 L-41,156 L-48,186 L-57,216 L-67,248 L-73,268 L-76,282 L-88,285 L-114,288 L-150,288 L-172,285 L-181,283 L-179,278 L-171,262 L-158,232 L-151,215 L-143,216 L-124,216 L-110,213 L-95,207 L-82,198 L-73,189 L-65,176 L-61,166 L-61,163 L-68,174 L-74,181 L-85,189 L-97,195 L-106,198 L-115,200 L-135,200 L-152,197 L-167,194 L-182,194 L-195,197 L-209,204 L-225,212 L-231,214 L-255,214 L-267,210 L-282,202 L-290,194 L-294,185 L-293,183 L-285,186 L-276,188 L-267,191 L-251,191 L-236,187 L-220,179 L-209,171 L-197,160 L-194,157 L-189,159 L-190,148 L-193,142 L-197,140 L-196,146 L-207,156 L-221,166 L-240,175 L-251,178 L-268,178 L-275,175 L-278,167 L-279,162 L-279,148 L-276,135 L-273,129 L-259,122 L-242,119 L-240,118 L-241,113 L-244,110 L-247,109 L-258,109 L-268,113 L-274,118 L-276,118 L-278,122 L-281,124 L-290,102 L-283,94 L-273,87 L-259,80 L-241,74 L-201,64 L-193,60 L-181,49 L-175,42 L-164,33 L-148,25 L-140,23 L-115,23 L-99,26 L-86,31 L-77,36 L-67,44 L-60,51 L-59,56 L-59,66 L-57,71 L-48,49 L-39,33 L-27,17 L-18,9 L-4,1 Z " fill="#FDA332" transform="translate(611,263)" data-index="4" style="opacity: 1;"></path>
<path d="M0,0 L7,6 L17,19 L26,35 L32,50 L40,75 L45,96 L52,117 L60,133 L68,144 L74,151 L74,153 L77,154 L77,156 L79,156 L79,158 L83,160 L92,167 L107,177 L124,186 L143,194 L171,205 L187,211 L204,219 L218,227 L232,237 L249,254 L259,267 L267,281 L275,300 L279,313 L283,333 L283,337 L139,338 L123,335 L106,330 L88,322 L72,313 L58,303 L45,291 L36,282 L24,266 L14,248 L7,231 L2,214 L-1,197 Z " fill="#21074C" transform="translate(85,607)" data-index="5"></path>
<path d="M0,0 L38,0 L62,4 L86,12 L106,22 L122,33 L137,45 L134,48 L124,53 L112,62 L109,65 L107,65 L105,69 L97,78 L94,82 L95,73 L95,59 L90,46 L84,39 L78,36 L65,36 L55,41 L44,50 L35,61 L30,69 L7,69 L-9,73 L-21,78 L-31,85 L-43,96 L-55,109 L-63,113 L-90,119 L-113,125 L-128,131 L-141,139 L-151,148 L-160,160 L-163,165 L-164,162 L-160,138 L-154,118 L-145,97 L-135,79 L-127,68 L-115,54 L-108,47 L-94,36 L-80,27 L-59,16 L-40,9 L-17,3 Z " fill="#321F77" transform="translate(468,202)" data-index="6"></path>
<path d="M0,0 L15,0 L28,2 L43,7 L55,14 L65,23 L73,31 L82,45 L87,57 L89,65 L79,74 L61,87 L40,99 L24,107 L7,115 L-22,126 L-41,132 L-50,133 L-58,122 L-65,108 L-69,92 L-70,86 L-70,72 L-67,56 L-62,44 L-56,33 L-45,21 L-37,14 L-23,6 L-6,1 Z " fill="#F05A42" transform="translate(754,144)" data-index="7"></path>
<path d="M0,0 L2,1 L12,22 L19,42 L22,56 L24,70 L24,106 L20,130 L15,146 L10,159 L2,175 L-5,186 L-16,200 L-25,210 L-35,219 L-50,230 L-66,239 L-84,247 L-89,248 L-88,241 L-80,214 L-67,173 L-59,146 L-54,123 L-50,90 L-49,72 L-39,65 L-30,58 L-21,49 L-12,36 L-7,26 L-2,13 Z " fill="#271167" transform="translate(640,292)" data-index="8" style="opacity: 1;"></path>
<path d="M0,0 L10,3 L14,4 L15,9 L15,41 L11,65 L2,99 L-11,140 L-19,167 L-22,181 L-34,184 L-60,187 L-96,187 L-118,184 L-127,182 L-125,177 L-117,161 L-104,131 L-97,114 L-89,115 L-70,115 L-56,112 L-41,106 L-28,97 L-19,88 L-11,75 L-7,65 L-7,62 L-14,73 L-20,80 L-31,88 L-43,94 L-52,97 L-61,99 L-81,99 L-98,96 L-113,93 L-128,93 L-141,96 L-155,103 L-171,111 L-177,113 L-201,113 L-213,109 L-228,101 L-236,93 L-240,84 L-239,82 L-231,85 L-230,89 L-220,95 L-210,99 L-204,100 L-185,100 L-166,94 L-134,80 L-122,77 L-108,76 L-82,79 L-68,79 L-49,76 L-38,71 L-27,63 L-18,55 L-11,45 L-5,30 L-2,17 Z " fill="#F08029" transform="translate(557,364)" data-index="9" style="opacity: 1;"></path>
<path d="M0,0 L31,0 L47,2 L62,5 L81,10 L102,18 L125,30 L137,38 L149,47 L162,59 L170,67 L179,78 L191,95 L201,112 L211,135 L216,151 L221,176 L222,185 L222,226 L218,248 L210,274 L202,292 L194,307 L184,322 L175,334 L166,344 L159,352 L154,347 L151,344 L151,341 L157,336 L164,328 L174,315 L184,299 L193,282 L202,258 L206,242 L209,224 L209,185 L207,170 L201,145 L195,129 L187,112 L175,93 L164,79 L152,66 L146,61 L141,56 L126,44 L106,32 L88,24 L77,20 L54,14 L37,11 L-6,11 L-24,14 L-41,18 L-59,24 L-86,37 L-102,47 L-115,57 L-134,76 L-145,90 L-157,108 L-166,125 L-175,149 L-180,168 L-183,186 L-183,226 L-179,251 L-173,271 L-165,290 L-154,310 L-142,326 L-133,336 L-126,344 L-115,353 L-107,359 L-105,360 L-107,364 L-111,371 L-115,370 L-126,361 L-136,352 L-145,343 L-158,326 L-168,311 L-180,288 L-188,267 L-193,244 L-196,219 L-196,195 L-192,165 L-185,140 L-177,121 L-169,105 L-155,84 L-142,68 L-120,46 L-103,34 L-86,24 L-69,16 L-49,9 L-30,4 L-12,1 Z " fill="#723B96" transform="translate(472,177)" data-index="10" style="opacity: 1;"></path>
<path d="M0,0 L4,1 L11,11 L20,27 L28,46 L36,71 L36,75 L40,77 L50,85 L61,95 L70,106 L79,119 L88,136 L94,153 L97,165 L99,181 L99,205 L94,230 L89,243 L78,262 L67,276 L52,291 L37,302 L22,311 L1,321 L-1,321 L-1,288 L0,281 L2,277 L18,273 L28,266 L35,259 L42,249 L45,244 L50,228 L55,200 L57,181 L57,154 L54,133 L51,121 L45,105 L36,91 L22,74 L20,72 L18,53 L14,33 L9,20 L1,4 Z " fill="#F07F2A" transform="translate(745,525)" data-index="11"></path>
<path d="M0,0 L3,0 L6,6 L6,18 L0,28 L-9,35 L-28,45 L-53,55 L-72,61 L-91,65 L-114,68 L-162,68 L-180,65 L-201,60 L-216,54 L-227,48 L-234,42 L-236,38 L-236,26 L-230,17 L-225,18 L-213,24 L-185,33 L-164,37 L-153,38 L-109,38 L-83,34 L-62,29 L-39,21 L-12,8 L-1,1 Z " fill="#4D227F" transform="translate(610,529)" data-index="12" style="opacity: 1;"></path>
<path d="M0,0 L25,0 L36,3 L42,7 L46,12 L47,15 L47,23 L42,35 L35,47 L23,61 L11,73 L0,82 L-18,95 L-38,107 L-60,119 L-81,129 L-102,137 L-130,144 L-138,145 L-158,145 L-164,129 L-165,125 L-146,123 L-119,115 L-91,105 L-68,95 L-46,84 L-28,73 L-11,61 L0,52 L10,43 L20,32 L24,24 L23,17 L17,14 L13,13 L-10,13 L-16,5 L-16,3 Z " fill="#F56D3C" transform="translate(849,166)" data-index="13"></path>
<path d="M0,0 L1,0 L0,17 L-6,53 L-14,87 L-17,94 L-30,105 L-45,115 L-61,122 L-80,127 L-86,128 L-111,128 L-110,114 L-110,92 L-113,74 L-110,73 L-97,75 L-78,75 L-61,70 L-44,61 L-33,52 L-30,49 L-28,49 L-26,45 L-16,33 L-7,17 L-2,6 Z " fill="#F1802A" transform="translate(749,680)" data-index="14"></path>
<path d="M0,0 L7,0 L14,2 L19,7 L20,12 L1,24 L-12,34 L-22,43 L-32,52 L-39,60 L-46,67 L-50,72 L-52,72 L-52,74 L-60,80 L-65,82 L-77,82 L-84,79 L-89,73 L-90,70 L-90,62 L-86,55 L-77,45 L-70,38 L-54,26 L-39,17 L-24,9 Z " fill="#80609E" transform="translate(443,212)" data-index="15"></path>
<path d="M0,0 L10,0 L19,2 L18,7 L14,19 L10,28 L-5,61 L-9,70 L-20,67 L-35,60 L-51,51 L-62,42 L-72,33 L-83,20 L-81,19 L-68,22 L-54,22 L-38,19 L-22,11 L-7,2 Z " fill="#321F77" transform="translate(426,472)" data-index="16"></path>
<path d="M0,0 L4,4 L14,18 L26,30 L39,40 L54,49 L70,57 L87,63 L92,98 L93,106 L84,104 L68,97 L52,88 L42,80 L32,71 L22,59 L11,41 L5,27 L1,12 Z " fill="#DE6A2A" transform="translate(403,746)" data-index="17"></path>
<path d="M0,0 L1,3 L-10,34 L-14,47 L-19,59 L-20,64 L-16,66 L-23,67 L-59,67 L-81,64 L-90,62 L-88,57 L-80,41 L-76,33 L-55,30 L-34,23 L-23,17 L-11,9 L-2,2 Z " fill="#FDA232" transform="translate(520,484)" data-index="18"></path>
<path d="M0,0 L15,0 L28,2 L40,6 L39,8 L36,7 L18,7 L7,9 L-9,15 L-19,21 L-29,29 L-38,39 L-44,49 L-49,62 L-52,76 L-52,91 L-50,103 L-45,115 L-38,128 L-26,125 L-23,126 L-41,132 L-50,133 L-58,122 L-65,108 L-69,92 L-70,86 L-70,72 L-67,56 L-62,44 L-56,33 L-45,21 L-37,14 L-23,6 L-6,1 Z " fill="#FC7D3E" transform="translate(754,144)" data-index="19" style="opacity: 1;"></path>
<path d="M0,0 L1,0 L2,8 L2,33 L-2,55 L-8,77 L-17,101 L-24,114 L-29,121 L-53,121 L-71,119 L-79,117 L-78,115 L-78,98 L-72,99 L-58,99 L-46,93 L-39,87 L-31,76 L-22,61 L-14,45 L-6,25 L-4,20 L-3,9 Z " fill="#EF802A" transform="translate(629,748)" data-index="20"></path>
<path d="M0,0 L3,0 L3,3 L8,5 L20,12 L40,21 L59,26 L67,27 L80,27 L99,22 L104,20 L105,30 L106,31 L109,49 L114,63 L115,66 L102,65 L79,59 L58,51 L40,41 L28,32 L18,23 L11,16 L2,4 Z " fill="#F0802A" transform="translate(413,733)" data-index="21"></path>
<path d="M0,0 L1,0 L1,8 L-4,20 L-11,32 L-23,46 L-35,58 L-46,67 L-64,80 L-84,92 L-106,104 L-127,114 L-148,122 L-176,129 L-184,130 L-204,130 L-203,125 L-183,122 L-154,113 L-120,99 L-96,87 L-71,72 L-51,58 L-40,49 L-30,40 L-17,27 L-6,12 Z " fill="#C04540" transform="translate(895,181)" data-index="22"></path>
<path d="M0,0 L25,0 L41,3 L49,6 L49,7 L15,8 L0,12 L-12,17 L-23,25 L-33,34 L-46,47 L-54,51 L-68,54 L-84,57 L-104,61 L-120,68 L-132,77 L-141,87 L-143,92 L-146,89 L-150,79 L-143,71 L-133,64 L-119,57 L-101,51 L-61,41 L-53,37 L-41,26 L-35,19 L-24,10 L-8,2 Z " fill="#FCCD59" transform="translate(471,286)" data-index="23"></path>
<path d="M0,0 L4,2 L6,5 L6,33 L3,49 L-2,64 L-10,83 L-18,97 L-26,108 L-37,120 L-43,125 L-48,124 L-47,116 L-40,105 L-29,88 L-19,69 L-10,44 L-6,24 L-4,7 L-2,2 Z " fill="#391C77" transform="translate(642,369)" data-index="24"></path>
<path d="M0,0 L1,0 L4,17 L9,29 L16,37 L26,42 L38,45 L38,46 L26,49 L15,55 L8,64 L4,73 L1,88 L0,88 L-4,72 L-10,60 L-18,53 L-31,48 L-39,46 L-39,45 L-25,42 L-15,37 L-9,30 L-4,19 L-1,5 Z " fill="#FCF0D8" transform="translate(201,550)" data-index="25"></path>
<path d="M0,0 L5,1 L17,7 L45,16 L66,20 L77,21 L121,21 L147,17 L168,12 L188,5 L191,6 L185,11 L176,15 L158,21 L137,26 L112,29 L62,29 L36,25 L14,19 L-3,12 L-5,11 L-4,5 Z " fill="#9357AD" transform="translate(380,546)" data-index="26"></path>
<path d="M0,0 L8,1 L31,6 L50,8 L98,8 L132,4 L135,8 L134,12 L114,17 L83,21 L45,21 L25,17 L5,11 L-3,9 Z " fill="#EE8029" transform="translate(404,605)" data-index="27" style="opacity: 1;"></path>
<path d="M0,0 L1,0 L3,12 L7,22 L13,30 L23,36 L34,39 L31,41 L21,44 L13,50 L7,59 L4,67 L1,84 L-1,81 L-4,65 L-11,51 L-18,45 L-25,42 L-33,40 L-29,38 L-18,34 L-10,27 L-5,19 L-2,8 Z " fill="#FCF0D8" transform="translate(256,150)" data-index="28"></path>
<path d="M0,0 L6,4 L19,17 L28,31 L33,43 L35,51 L25,60 L7,73 L-2,78 L-2,75 L4,61 L7,47 L7,21 L3,8 L0,2 Z " fill="#C04541" transform="translate(808,158)" data-index="29"></path>
<path d="M0,0 L14,0 L25,4 L33,10 L39,20 L40,23 L40,32 L37,35 L33,34 L25,23 L17,18 L10,16 L3,16 L-7,20 L-13,25 L-20,35 L-24,34 L-26,31 L-25,22 L-21,14 L-16,8 L-6,2 Z " fill="#21094E" transform="translate(472,341)" data-index="30"></path>
<path d="M0,0 L14,0 L30,5 L43,13 L44,15 L30,12 L7,12 L-4,15 L-16,21 L-28,32 L-38,45 L-45,56 L-57,72 L-60,75 L-61,78 L-65,80 L-63,75 L-55,62 L-39,30 L-30,17 L-20,8 L-10,3 Z " fill="#FCCC58" transform="translate(689,497)" data-index="31" style="opacity: 1; visibility: visible; fill: rgb(121, 40, 202);"></path>
<path d="M0,0 L0,3 L-6,14 L-18,27 L-26,34 L-37,40 L-50,45 L-63,47 L-82,47 L-89,46 L-88,44 L-71,38 L-48,28 L-26,16 L-9,6 Z " fill="#C44740" transform="translate(840,264)" data-index="32"></path>
<path d="M0,0 L2,1 L-8,19 L-12,26 L-14,27 L-14,29 L-21,33 L-37,41 L-49,44 L-51,44 L-59,32 L-59,30 L-36,20 L-11,7 Z " fill="#EF8029" transform="translate(611,574)" data-index="33"></path>
<path d="M0,0 L3,0 L3,23 L-2,40 L-11,56 L-23,69 L-35,78 L-49,85 L-54,86 L-57,84 L-51,81 L-46,77 L-39,69 L-26,56 L-14,39 L-7,25 L-4,18 Z " fill="#F08329" transform="translate(622,271)" data-index="34"></path>
<path d="M0,0 L5,1 L9,7 L10,11 L10,24 L6,38 L1,36 L-15,28 L-24,25 L-23,19 L-17,11 L-6,3 Z " fill="#F28629" transform="translate(539,250)" data-index="35"></path>
<path d="M0,0 L2,0 L8,13 L11,21 L11,52 L12,56 L7,55 L1,51 L-4,45 L-7,37 L-7,25 L-4,11 Z " fill="#F9A432" transform="translate(313,379)" data-index="36"></path>
<path d="M0,0 L2,2 L6,15 L13,23 L20,26 L19,28 L9,33 L5,39 L1,51 L0,51 L-3,39 L-9,31 L-16,27 L-19,25 L-10,21 L-5,16 L-1,5 Z " fill="#F67D35" transform="translate(861,330)" data-index="37"></path>
<path d="M0,0 L5,1 L17,7 L48,17 L43,21 L41,24 L48,25 L48,26 L36,25 L14,19 L-3,12 L-5,11 L-4,5 Z " fill="#9056AB" transform="translate(380,546)" data-index="38" style="opacity: 1;"></path>
<path d="M0,0 L1,3 L-5,23 L-14,39 L-25,51 L-32,56 L-34,56 L-32,50 L-22,29 L-13,15 L-5,5 Z " fill="#20094D" transform="translate(604,283)" data-index="39"></path>
<path d="M0,0 L2,1 L4,11 L8,18 L8,20 L12,22 L19,25 L16,27 L8,32 L3,42 L2,49 L0,49 L-2,39 L-6,32 L-11,28 L-17,26 L-15,24 L-9,21 L-4,15 L-1,6 Z " fill="#F47C34" transform="translate(784,376)" data-index="40"></path>
<path d="M0,0 L3,1 L-3,6 L-12,10 L-30,16 L-51,21 L-65,23 L-82,22 L-84,19 L-103,18 L-103,17 L-67,16 L-41,12 L-20,7 Z " fill="#733F98" transform="translate(568,551)" data-index="41"></path>
<path d="M0,0 L22,0 L18,3 L-2,11 L-14,17 L-16,17 L-19,11 L-24,8 L-32,6 L-28,4 L-10,1 Z " fill="#553A8A" transform="translate(479,206)" data-index="42"></path>
<path d="M0,0 L8,0 L13,6 L13,12 L9,17 L7,18 L1,18 L-4,14 L-5,12 L-5,5 Z " fill="#F5862E" transform="translate(240,706)" data-index="43"></path>
<path d="M0,0 L8,0 L13,5 L13,12 L8,17 L1,17 L-4,13 L-5,5 Z " fill="#805FA0" transform="translate(341,295)" data-index="44"></path>
<path d="M0,0 L2,0 L5,6 L4,12 L-1,26 L-3,37 L-3,45 L-5,43 L-7,37 L-7,25 L-4,11 Z " fill="#F9C554" transform="translate(313,379)" data-index="45"></path>
<path d="M0,0 L6,0 L10,4 L10,12 L7,15 L-1,15 L-5,10 L-4,3 Z " fill="#EB7E2B" transform="translate(843,440)" data-index="46"></path>
<path d="M0,0 L10,0 L10,1 L2,2 L2,4 L9,4 L7,6 L-7,8 L-24,7 L-26,4 L-45,3 L-45,2 L-9,1 Z " fill="#784299" transform="translate(510,566)" data-index="47"></path>
<path d="M0,0 L2,2 L4,9 L-4,19 L-7,22 L-12,15 L-10,10 L-4,3 Z " fill="#F4703C" transform="translate(677,245)" data-index="48"></path>
<path d="M0,0 L6,0 L11,5 L10,12 L7,14 L1,14 L-3,11 L-3,3 Z " fill="#B64244" transform="translate(773,197)" data-index="49"></path>
<path d="M0,0 L6,0 L10,4 L9,11 L7,13 L-1,13 L-4,9 L-4,4 Z " fill="#F68A2E" transform="translate(200,246)" data-index="50"></path>
<path d="M0,0 L26,0 L29,2 L40,3 L40,4 L27,5 L-2,4 Z " fill="#8850A6" transform="translate(458,570)" data-index="51"></path>
<path d="M0,0 L7,1 L9,3 L9,11 L6,13 L-1,12 L-3,10 L-3,3 Z " fill="#5E2F7F" transform="translate(872,811)" data-index="52"></path>
<path d="M0,0 L7,0 L10,3 L9,10 L6,12 L1,12 L-3,7 L-2,2 Z " fill="#39196A" transform="translate(370,154)" data-index="53"></path>
<path d="M0,0 L4,1 L-9,8 L-15,15 L-23,22 L-29,29 L-37,42 L-38,39 L-28,24 L-20,14 L-12,7 Z " fill="#F5D853" transform="translate(605,265)" data-index="54"></path>
<path d="M0,0 L3,4 L3,22 L2,22 L2,17 L0,17 L-1,15 L-4,15 L-5,22 L-6,22 L-6,4 L-3,4 Z " fill="#160450" transform="translate(329,406)" data-index="55"></path>
<path d="M0,0 L6,1 L8,4 L7,10 L4,12 L-2,11 L-4,8 L-3,3 Z " fill="#391968" transform="translate(204,315)" data-index="56"></path>
<path d="M0,0 L3,3 L8,14 L11,24 L11,27 L8,27 L8,23 L5,24 L3,20 L0,3 Z " fill="#1F0C4F" transform="translate(627,736)" data-index="57"></path>
<path d="M0,0 L5,1 L7,3 L7,9 L5,11 L-2,11 L-4,8 L-3,2 Z " fill="#F3942A" transform="translate(159,464)" data-index="58"></path>
<path d="M0,0 L5,1 L7,3 L6,10 L-1,11 L-4,7 L-3,2 Z " fill="#F18B2F" transform="translate(634,182)" data-index="59"></path>
<path d="M0,0 L3,1 L-3,6 L-12,10 L-22,12 L-24,10 L-20,8 L-16,6 Z " fill="#663590" transform="translate(568,551)" data-index="60" style="opacity: 1;"></path>
<path d="M0,0 L15,0 L28,2 L40,6 L39,8 L36,7 L22,6 L20,3 L-4,2 Z " fill="#F1813B" transform="translate(754,144)" data-index="61"></path>
<path d="M0,0 L10,0 L10,1 L2,2 L2,4 L9,4 L7,6 L-5,7 L-10,6 L-12,3 L-9,1 Z " fill="#8048A1" transform="translate(510,566)" data-index="62"></path>
<path d="M0,0 L4,2 L10,4 L17,5 L17,34 L16,41 L15,41 L15,7 L8,6 L0,2 Z " fill="#F79921" transform="translate(556,361)" data-index="63"></path>
<path d="M0,0 L5,0 L7,5 L5,7 L7,7 L7,9 L9,10 L1,12 L-1,8 L-1,1 Z " fill="#EA742D" transform="translate(841,443)" data-index="64"></path>
<path d="M0,0 L5,1 L6,7 L4,9 L-1,9 L-3,7 L-2,2 Z " fill="#F1922C" transform="translate(866,597)" data-index="65"></path>
<path d="M0,0 L5,0 L4,4 L-3,7 L-7,9 L-6,5 L-14,6 L-13,4 Z M-5,3 Z " fill="#35237C" transform="translate(435,209)" data-index="66"></path>
<path d="M0,0 L4,4 L12,16 L24,29 L28,34 L24,32 L12,20 L0,2 Z " fill="#120756" transform="translate(409,728)" data-index="67"></path>
<path d="M0,0 L5,0 L7,2 L7,7 L5,9 L0,8 L-1,7 L-1,1 Z " fill="#F49029" transform="translate(299,628)" data-index="68"></path>
<path d="M0,0 L14,0 L25,3 L24,7 L15,4 L15,2 L-1,2 Z M18,3 Z " fill="#EFCA53" transform="translate(689,497)" data-index="69"></path>
<path d="M0,0 L14,0 L25,4 L28,7 L19,4 L16,3 L3,3 L-4,4 Z " fill="#170753" transform="translate(472,341)" data-index="70"></path>
<path d="M0,0 L3,0 L3,3 L8,5 L15,9 L12,11 L10,14 L4,7 Z " fill="#F18628" transform="translate(413,733)" data-index="71"></path>
<path d="M0,0 L1,0 L2,7 L3,9 L3,27 L1,25 L-1,19 L-1,7 Z " fill="#E7C355" transform="translate(307,397)" data-index="72"></path>
<path d="M0,0 L5,1 L6,2 L6,7 L5,8 L-1,8 L-2,7 L-2,2 Z " fill="#391968" transform="translate(178,830)" data-index="73"></path>
<path d="M0,0 L3,2 L4,5 L4,16 L-1,15 L-10,24 L-12,23 L-1,12 L2,13 L1,4 Z " fill="#0F0354" transform="translate(418,406)" data-index="74"></path>
<path d="M0,0 L2,0 L0,10 L-2,20 L-3,20 L-3,10 L-4,9 L-4,1 Z " fill="#FCD15B" transform="translate(312,395)" data-index="75"></path>
<path d="M0,0 L1,0 L1,8 L-1,10 L-4,17 L-7,17 L-12,22 L-10,18 L-3,6 Z " fill="#B33F40" transform="translate(895,181)" data-index="76"></path>
<path d="M0,0 L7,0 L7,1 L-2,4 L-2,6 L0,8 L-2,8 L-1,12 L-1,14 L4,16 L4,18 L-1,17 L-5,12 L-5,5 Z " fill="#F99725" transform="translate(240,706)" data-index="77"></path>
<path d="M0,0 L1,0 L3,12 L7,22 L9,26 L6,25 L2,17 L0,13 L-2,12 L-1,2 Z " fill="#E3DAD7" transform="translate(256,150)" data-index="78"></path>
<path d="M0,0 L4,4 L12,15 L11,17 L4,9 L3,15 L1,12 Z " fill="#E67724" transform="translate(403,746)" data-index="79"></path>
<path d="M0,0 L2,1 L3,9 L1,20 L-1,17 L-2,9 Z " fill="#F2E8DA" transform="translate(256,214)" data-index="80"></path>
<path d="M0,0 L2,0 L2,3 L-7,7 L-13,10 L-15,10 L-16,12 L-24,13 L-23,11 L-8,5 Z " fill="#F08C22" transform="translate(524,465)" data-index="81"></path>
<path d="M0,0 L1,2 L-3,18 L-6,18 L-7,13 L-5,7 L-1,1 Z " fill="#210C4E" transform="translate(534,711)" data-index="82"></path>
<path d="M0,0 L5,1 L6,6 L4,8 L-1,7 L-2,2 Z " fill="#855E88" transform="translate(731,446)" data-index="83"></path>
<path d="M0,0 L1,0 L3,13 L7,18 L14,22 L15,24 L18,25 L16,26 L5,19 L1,14 L0,12 Z " fill="#622F8A" transform="translate(374,555)" data-index="84"></path>
<path d="M0,0 L7,1 L7,3 L4,3 L4,8 L-3,9 Z " fill="#F48D27" transform="translate(404,605)" data-index="85"></path>
<path d="M0,0 L2,0 L5,7 L3,7 L0,4 L0,11 L1,15 L-4,16 L-3,8 Z " fill="#EFD253" transform="translate(313,379)" data-index="86"></path>
<path d="M0,0 L2,1 L-2,5 L-9,7 L-9,8 L-18,8 L-17,6 Z " fill="#D14C3B" transform="translate(769,302)" data-index="87"></path>
<path d="M0,0 L1,0 L3,16 L-1,15 L-2,18 L-3,15 Z " fill="#F1E8DC" transform="translate(201,550)" data-index="88"></path>
<path d="M0,0 L2,1 L-8,11 L-13,16 L-19,21 L-17,17 Z " fill="#12023E" transform="translate(358,232)" data-index="89"></path>
<path d="M0,0 L5,2 L6,7 L6,16 L4,15 L3,11 L0,12 L0,9 L2,9 L2,4 L0,4 Z " fill="#2C104B" transform="translate(414,403)" data-index="90"></path>
<path d="M0,0 L5,0 L6,1 L6,6 L1,7 L-1,5 Z " fill="#F59827" transform="translate(128,378)" data-index="91"></path>
<path d="M0,0 L1,0 L0,9 L-5,22 L-8,25 L-7,18 L-5,18 L-2,7 Z " fill="#F8A021" transform="translate(623,293)" data-index="92"></path>
<path d="M0,0 L2,0 L0,4 L-2,7 L-6,8 L-14,16 L-16,15 L-5,4 Z " fill="#7C419E" transform="translate(357,219)" data-index="93"></path>
<path d="M0,0 L4,1 L5,6 L4,7 L-1,7 L-2,2 Z " fill="#8A638B" transform="translate(496,124)" data-index="94"></path>
<path d="M0,0 L1,2 L-1,8 L1,10 L-5,15 L-7,15 L-5,9 Z " fill="#160752" transform="translate(577,324)" data-index="95"></path>
<path d="M0,0 L1,3 L-3,14 L-5,25 L-6,25 L-7,17 L-2,4 Z " fill="#F9F3E6" transform="translate(207,613)" data-index="96"></path>
<path d="M0,0 L3,2 L3,4 L0,6 L3,8 L2,9 L-5,9 L-3,4 Z " fill="#F0A931" transform="translate(435,537)" data-index="97"></path>
<path d="M0,0 L2,1 L-4,11 L-5,9 L-4,7 L-9,7 L-5,3 Z " fill="#F09325" transform="translate(611,574)" data-index="98"></path>
<path d="M0,0 L5,1 L10,3 L6,9 L2,5 Z " fill="#EF723C" transform="translate(665,258)" data-index="99"></path>
<path d="M0,0 L2,2 L4,9 L2,11 L-1,11 L-2,4 Z " fill="#E05739" transform="translate(677,245)" data-index="100"></path>
<path d="M0,0 L4,4 L12,19 L11,22 L7,16 L4,9 L0,2 Z " fill="#F19623" transform="translate(754,535)" data-index="101"></path>
<path d="M0,0 L2,2 L4,13 L4,17 L-2,16 L-3,14 L2,15 L0,6 Z " fill="#E77622" transform="translate(492,835)" data-index="102"></path>
<path d="M0,0 L3,1 L-3,4 L-5,6 L-8,9 L-10,9 L-11,15 L-12,11 L-9,5 Z " fill="#F9BD2D" transform="translate(347,387)" data-index="103"></path>
<path d="M0,0 L5,1 L14,7 L16,11 L15,14 L11,8 L6,4 L0,1 Z " fill="#EE653E" transform="translate(794,151)" data-index="104"></path>
<path d="M0,0 L3,1 L1,5 L-2,8 L-3,11 L-7,13 L-5,8 Z " fill="#F4D151" transform="translate(631,564)" data-index="105"></path>
<path d="M0,0 L6,1 L7,5 L-6,2 L-6,1 Z " fill="#E7DAD7" transform="translate(168,594)" data-index="106"></path>
<path d="M0,0 L4,1 L5,3 L5,9 L3,6 L-2,6 L-2,3 L0,3 Z " fill="#F38831" transform="translate(159,464)" data-index="107"></path>
<path d="M0,0 L2,1 L2,9 L-1,12 L-7,12 L-3,9 L-3,5 L-1,5 L0,7 Z " fill="#F18A26" transform="translate(851,443)" data-index="108"></path>
<path d="M0,0 L5,0 L5,5 L1,6 L-1,4 Z " fill="#8A638A" transform="translate(263,875)" data-index="109"></path>
<path d="M0,0 L4,1 L4,6 L-1,6 L-2,2 Z " fill="#8D658C" transform="translate(171,188)" data-index="110"></path>
<path d="M0,0 L4,1 L5,5 L0,6 L-1,1 Z " fill="#5D3087" transform="translate(687,838)" data-index="111"></path>
<path d="M0,0 L4,1 L9,6 L12,9 L11,12 L6,6 L-3,2 Z " fill="#F3902F" transform="translate(845,354)" data-index="112"></path>
<path d="M0,0 L3,0 L4,7 L3,16 L2,16 Z " fill="#2B1651" transform="translate(250,215)" data-index="113"></path>
<path d="M0,0 L1,3 L-4,7 L-8,8 L-11,8 L-3,2 Z " fill="#F78B3A" transform="translate(725,153)" data-index="114"></path>
<path d="M0,0 L2,1 L-1,4 L-8,8 L-14,12 L-12,8 Z " fill="#100733" transform="translate(160,102)" data-index="115"></path>
<path d="M0,0 L2,1 L-10,12 L-10,9 L-4,2 Z " fill="#140551" transform="translate(818,795)" data-index="116"></path>
<path d="M0,0 L5,1 L4,5 L1,6 L-1,5 Z " fill="#8D6492" transform="translate(892,549)" data-index="117"></path>
<path d="M0,0 L5,0 L5,3 L10,4 L11,6 L-1,3 L-4,1 Z " fill="#EEE9E1" transform="translate(227,188)" data-index="118"></path>
<path d="M0,0 L8,0 L11,3 L6,4 L4,4 L1,3 Z " fill="#FCB52E" transform="translate(325,450)" data-index="119"></path>
<path d="M0,0 L3,2 L3,4 L7,6 L14,9 L14,10 L7,10 L4,7 L4,5 L2,5 Z " fill="#EC8230" transform="translate(789,392)" data-index="120"></path>
<path d="M0,0 L11,0 L8,2 L4,3 L7,6 L3,5 L0,2 Z " fill="#120653" transform="translate(556,358)" data-index="121"></path>
<path d="M0,0 L3,1 L-1,3 L-5,7 L-11,9 L-7,4 Z " fill="#F9E15A" transform="translate(340,349)" data-index="122"></path>
<path d="M0,0 L0,3 L-5,12 L-7,13 L-5,8 L-5,6 L-6,4 Z " fill="#D9523B" transform="translate(840,264)" data-index="123"></path>
<path d="M0,0 L5,1 L4,6 L0,5 Z " fill="#3A1E7A" transform="translate(582,501)" data-index="124"></path>
<path d="M0,0 L6,0 L13,6 L10,6 L0,1 Z " fill="#F0AF2C" transform="translate(489,341)" data-index="125"></path>
<path d="M0,0 L6,0 L8,2 L-1,4 L-3,8 L-2,1 Z " fill="#F69929" transform="translate(200,246)" data-index="126"></path>
<path d="M0,0 L14,1 L10,3 L0,3 Z " fill="#E0762C" transform="translate(511,612)" data-index="127"></path>
<path d="M0,0 L6,1 L5,8 L2,8 L1,3 Z " fill="#E67B29" transform="translate(601,580)" data-index="128"></path>
<path d="M0,0 L2,0 L0,5 L-3,12 L-3,14 L-6,14 L-4,8 Z " fill="#FADE58" transform="translate(638,551)" data-index="129"></path>
<path d="M0,0 L1,0 L1,10 L-3,6 L-3,1 Z " fill="#E9812C" transform="translate(199,249)" data-index="130"></path>
<path d="M0,0 L2,2 L2,7 L0,9 L-1,16 L-2,16 L-2,8 L-1,1 Z " fill="#311149" transform="translate(744,799)" data-index="131"></path>
<path d="M0,0 L4,1 L3,6 L-1,5 Z " fill="#91699B" transform="translate(320,782)" data-index="132"></path>
<path d="M0,0 L2,1 L3,10 L0,11 L-1,6 Z " fill="#E77F30" transform="translate(784,376)" data-index="133"></path>
<path d="M0,0 L4,1 L2,3 L0,5 L2,12 L-1,9 L-3,4 Z " fill="#F7DB59" transform="translate(324,361)" data-index="134"></path>
<path d="M0,0 L6,0 L5,5 L0,4 Z " fill="#7E5783" transform="translate(731,448)" data-index="135"></path>
<path d="M0,0 L3,3 L3,5 L6,6 L5,12 L3,9 L0,3 Z " fill="#F1E9DC" transform="translate(248,203)" data-index="136"></path>
<path d="M0,0 L3,3 L2,13 L0,10 Z " fill="#2A0F50" transform="translate(745,784)" data-index="137"></path>
<path d="M0,0 L9,3 L8,5 L2,6 Z " fill="#F09D27" transform="translate(317,446)" data-index="138"></path>
<path d="M0,0 L1,3 L-1,9 L-3,6 L-6,6 Z " fill="#0E0351" transform="translate(604,283)" data-index="139"></path>
<path d="M0,0 L5,1 L4,5 L0,4 Z " fill="#906A96" transform="translate(897,698)" data-index="140"></path>
<path d="M0,0 L4,1 L5,2 L5,7 L3,8 L1,5 L-1,4 L2,2 Z " fill="#FA9C26" transform="translate(301,628)" data-index="141"></path>
<path d="M0,0 L4,0 L3,5 L-1,4 Z " fill="#896188" transform="translate(621,128)" data-index="142"></path>
<path d="M0,0 L4,2 L8,7 L5,7 L0,2 Z " fill="#2B1E4D" transform="translate(888,121)" data-index="143"></path>
<path d="M0,0 L5,0 L5,3 L-3,3 L-5,1 Z " fill="#2D1C50" transform="translate(216,80)" data-index="144"></path>
<path d="M0,0 L3,3 L4,6 L-3,6 L-5,4 L1,4 Z " fill="#EE9224" transform="translate(524,793)" data-index="145"></path>
<path d="M0,0 L2,3 L2,11 L-1,11 Z " fill="#F19B30" transform="translate(395,671)" data-index="146"></path>
<path d="M0,0 L10,2 L6,5 L3,4 Z " fill="#995BB3" transform="translate(418,561)" data-index="147"></path>
<path d="M0,0 L4,1 L3,5 L-1,4 Z " fill="#926A95" transform="translate(137,547)" data-index="148"></path>
<path d="M0,0 L4,0 L3,3 L1,3 L-2,10 L-3,6 Z " fill="#F7AE2B" transform="translate(444,517)" data-index="149"></path>
<path d="M0,0 L4,1 L3,5 L-1,4 Z " fill="#90678B" transform="translate(235,366)" data-index="150"></path>
<path d="M0,0 L2,1 L1,4 L-8,4 L-7,2 Z " fill="#E55B38" transform="translate(759,306)" data-index="151"></path>
<path d="M0,0 L4,1 L3,5 L-1,4 Z " fill="#663E8A" transform="translate(258,291)" data-index="152"></path>
<path d="M0,0 L4,3 L5,12 L3,11 L0,3 Z " fill="#EA7325" transform="translate(408,770)" data-index="153"></path>
<path d="M0,0 L1,0 L3,12 L1,14 L0,12 Z " fill="#6A348F" transform="translate(374,555)" data-index="154"></path>
<path d="M0,0 L8,2 L5,4 L7,7 L3,5 Z " fill="#36247F" transform="translate(343,491)" data-index="155"></path>
<path d="M0,0 L4,4 L4,6 L-1,5 L-2,1 Z " fill="#E89E2F" transform="translate(321,429)" data-index="156"></path>
<path d="M0,0 L6,2 L6,3 L-1,4 L-4,6 L-2,2 Z " fill="#F4B730" transform="translate(417,420)" data-index="157"></path>
<path d="M0,0 L9,1 L6,3 L1,3 Z " fill="#E9E2DC" transform="translate(281,188)" data-index="158"></path>
<path d="M0,0 L7,0 L4,1 L4,3 L-4,3 L-4,1 Z " fill="#F87E37" transform="translate(837,168)" data-index="159"></path>
<path d="M0,0 L1,0 L2,11 L0,11 L-1,5 Z " fill="#E0D0DA" transform="translate(201,550)" data-index="160"></path>
<path d="M0,0 L5,1 L5,4 L0,4 Z " fill="#916A8E" transform="translate(808,500)" data-index="161"></path>
<path d="M0,0 L3,2 L2,6 L0,10 L-1,1 Z " fill="#140551" transform="translate(324,398)" data-index="162"></path>
<path d="M0,0 L5,0 L2,2 L-2,4 L-4,6 L-6,4 Z " fill="#100453" transform="translate(877,358)" data-index="163"></path>
<path d="M0,0 L8,0 L9,2 L1,3 Z " fill="#280F51" transform="translate(223,942)" data-index="164"></path>
<path d="M0,0 L2,0 L3,7 L1,8 Z " fill="#F2A62B" transform="translate(533,768)" data-index="165"></path>
<path d="M0,0 L5,1 L4,5 L1,5 Z " fill="#E47728" transform="translate(527,610)" data-index="166" style="opacity: 1;"></path>
<path d="M0,0 L5,1 L3,6 L0,5 Z " fill="#E57F2F" transform="translate(866,597)" data-index="167"></path>
<path d="M0,0 L7,0 L7,3 L2,4 Z " fill="#874DA3" transform="translate(450,567)" data-index="168"></path>
<path d="M0,0 L2,4 L0,6 L-3,5 L-2,1 Z " fill="#2A0F4D" transform="translate(436,528)" data-index="169"></path>
<path d="M0,0 L5,5 L7,8 L4,8 L0,2 Z " fill="#E98130" transform="translate(865,344)" data-index="170"></path>
<path d="M0,0 L2,0 L0,6 L-3,9 L-2,2 L0,2 Z " fill="#F29223" transform="translate(618,309)" data-index="171"></path>
<path d="M0,0 L2,1 L-4,8 L-6,7 Z " fill="#271771" transform="translate(413,261)" data-index="172"></path>
<path d="M0,0 L2,0 L1,5 L-5,7 L-2,4 Z " fill="#F66E3B" transform="translate(804,232)" data-index="173"></path>
<path d="M0,0 L7,2 L7,3 L0,4 L-3,2 L0,2 Z " fill="#2D1950" transform="translate(282,184)" data-index="174"></path>
<path d="M0,0 L4,0 L3,6 L0,5 Z " fill="#F48E27" transform="translate(730,766)" data-index="175"></path>
<path d="M0,0 L3,0 L3,3 L7,5 L5,8 Z " fill="#F59624" transform="translate(413,733)" data-index="176"></path>
<path d="M0,0 L4,2 L5,8 L2,7 L0,3 Z " fill="#F9B52C" transform="translate(404,714)" data-index="177"></path>
<path d="M0,0 L2,1 L3,5 L1,7 L-1,6 L-1,1 Z " fill="#2B104C" transform="translate(650,519)" data-index="178"></path>
<path d="M0,0 L2,1 L-1,2 L-2,5 L-6,5 L-6,3 Z " fill="#F5B52E" transform="translate(388,444)" data-index="179"></path>
<path d="M0,0 L3,2 L3,5 L-2,6 L-2,3 L0,3 Z " fill="#FDD257" transform="translate(311,389)" data-index="180"></path>
<path d="M0,0 L3,1 L3,7 L1,9 Z " fill="#FA992D" transform="translate(860,372)" data-index="181"></path>
<path d="M0,0 L2,2 L1,6 L-1,10 L-1,1 Z " fill="#F6932A" transform="translate(622,267)" data-index="182"></path>
<path d="M0,0 L3,4 L2,8 L0,7 L-1,2 Z " fill="#BC4243" transform="translate(676,247)" data-index="183"></path>
<path d="M0,0 L2,1 L-2,5 L-6,6 L-5,3 Z " fill="#8968A2" transform="translate(394,235)" data-index="184"></path>
</svg>