<?xml version="1.0" standalone="no"?>
<!DOCTYPE svg PUBLIC "-//W3C//DTD SVG 20010904//EN"
 "http://www.w3.org/TR/2001/REC-SVG-20010904/DTD/svg10.dtd">
<svg version="1.0" xmlns="http://www.w3.org/2000/svg"
 width="1024.000000pt" height="1024.000000pt" viewBox="0 0 1024.000000 1024.000000"
 preserveAspectRatio="xMidYMid meet">

<g transform="translate(0.000000,1024.000000) scale(0.100000,-0.100000)"
fill="#000000" stroke="none">
<path d="M2225 9443 c-16 -2 -74 -13 -129 -24 -512 -106 -956 -491 -1152
-1001 -49 -126 -91 -310 -104 -451 -8 -87 -10 -934 -7 -2942 4 -3075 -1 -2840
57 -3053 174 -641 748 -1122 1413 -1182 86 -8 936 -10 2907 -8 l2785 4 100 22
c350 80 600 216 841 456 277 278 427 596 464 986 8 81 10 952 7 2945 -4 3086
1 2850 -57 3063 -164 606 -663 1071 -1258 1173 -111 19 -183 19 -2975 18
-1574 -1 -2875 -4 -2892 -6z m2782 -479 c2 -13 1 -15 -4 -4 -3 8 -11 19 -17
23 -7 6 -6 7 4 4 8 -2 16 -12 17 -23z m-21 -32 c-10 -2 -22 0 -28 6 -6 6 0 7
19 4 21 -5 23 -7 9 -10z m2844 -163 c73 -19 195 -72 234 -101 17 -13 17 -15 3
-21 -10 -4 -16 -2 -14 4 1 6 -29 27 -68 48 -62 32 -79 36 -155 39 -296 9 -592
-161 -723 -415 -62 -121 -89 -228 -90 -363 -2 -128 16 -200 78 -325 69 -138
57 -131 161 -97 272 90 681 274 653 294 -11 8 -10 9 4 4 17 -5 117 37 117 50
0 3 -4 3 -9 -1 -5 -3 -13 0 -17 6 -4 8 -3 9 4 5 7 -4 12 -2 12 5 0 7 3 9 6 6
11 -11 40 35 69 110 16 40 30 71 32 69 6 -5 -43 -131 -62 -160 -9 -14 -14 -29
-11 -34 6 -11 -194 -120 -344 -187 -213 -96 -599 -235 -651 -235 -23 0 -89 96
-134 194 -125 270 -99 575 70 811 124 174 319 285 560 319 54 7 198 -6 275
-25z m-5221 -220 c47 -100 128 -163 241 -189 l55 -13 -61 -17 c-152 -41 -227
-138 -264 -338 -19 -107 -23 -105 -40 16 -14 92 -51 179 -99 235 -35 40 -113
81 -176 93 l-40 7 60 17 c83 23 114 41 164 95 46 50 74 104 90 175 25 113 23
111 36 35 7 -38 22 -91 34 -116z m5500 26 c0 -5 -6 1 -14 15 -8 14 -14 30 -14
35 0 6 6 -1 14 -15 8 -14 14 -29 14 -35z m703 -18 c58 -18 104 -50 123 -87 26
-50 -20 -142 -152 -302 -202 -245 -572 -507 -1009 -716 -303 -145 -634 -254
-829 -275 l-40 -4 -30 77 -31 77 91 6 c261 17 918 278 1262 503 87 56 99 62
87 42 -4 -7 -3 -8 5 -4 6 4 9 11 6 16 -3 4 35 36 83 71 108 78 312 280 341
336 59 118 -4 165 -215 162 -105 -1 -118 1 -127 17 -5 11 -19 29 -30 41 -11
13 -18 25 -15 28 3 3 47 12 99 20 112 17 312 13 381 -8z m-675 -69 c-3 -8 -6
-5 -6 6 -1 11 2 17 5 13 3 -3 4 -12 1 -19z m-1749 -84 c47 -33 9 -107 -46 -88
-37 13 -43 65 -10 88 28 20 28 20 56 0z m1769 -36 c-3 -8 -6 -5 -6 6 -1 11 2
17 5 13 3 -3 4 -12 1 -19z m-6414 -60 c-2 -5 -10 -8 -18 -8 -8 0 -16 3 -18 8
-3 4 5 7 18 7 13 0 21 -3 18 -7z m6414 -40 c-2 -13 -4 -5 -4 17 -1 22 1 32 4
23 2 -10 2 -28 0 -40z m-470 -70 c-3 -8 -6 -5 -6 6 -1 11 2 17 5 13 3 -3 4
-12 1 -19z m460 -20 c-3 -7 -5 -2 -5 12 0 14 2 19 5 13 2 -7 2 -19 0 -25z
m-316 -31 l-24 -22 19 27 c10 14 21 24 23 22 3 -3 -6 -15 -18 -27z m306 -29
c-3 -7 -5 -2 -5 12 0 14 2 19 5 13 2 -7 2 -19 0 -25z m-3697 -222 c0 -2 -8
-10 -17 -17 -16 -13 -17 -12 -4 4 13 16 21 21 21 13z m-40 -30 c0 -2 -8 -10
-17 -17 -16 -13 -17 -12 -4 4 13 16 21 21 21 13z m-115 -46 c0 -22 -29 -18
-33 3 -3 14 1 18 15 15 10 -2 18 -10 18 -18z m75 16 c0 -2 -8 -10 -17 -17 -16
-13 -17 -12 -4 4 13 16 21 21 21 13z m-40 -29 c0 -2 -12 -14 -27 -28 l-28 -24
24 28 c23 25 31 32 31 24z m-2237 -58 c37 -51 -10 -112 -75 -96 -28 7 -51 48
-41 74 20 58 80 69 116 22z m4670 9 c-13 -18 8 -76 25 -70 13 4 -51 -93 -68
-103 -4 -3 -19 10 -34 29 l-25 34 21 28 c26 35 80 94 86 94 3 0 0 -6 -5 -12z
m-2983 -2 c0 -2 -8 -10 -17 -17 -16 -13 -17 -12 -4 4 13 16 21 21 21 13z
m1690 -66 c21 -38 25 -58 25 -130 0 -57 -6 -103 -19 -140 -10 -30 -20 -57 -22
-59 -1 -2 -15 6 -31 17 -44 31 -143 78 -205 98 -33 10 -58 24 -58 31 0 21 44
84 86 125 51 49 154 109 179 106 11 -2 30 -22 45 -48z m-1230 37 c0 -1 -48
-50 -107 -107 l-108 -105 105 108 c97 99 110 112 110 104z m-540 -40 c0 -2
-15 -16 -32 -33 l-33 -29 29 33 c28 30 36 37 36 29z m265 -67 c0 -22 -29 -18
-33 3 -3 14 1 18 15 15 10 -2 18 -10 18 -18z m2238 -19 c39 -15 57 -76 57
-189 0 -223 -109 -440 -298 -593 -124 -100 -255 -159 -354 -159 -44 0 -47 -8
-15 -37 35 -32 62 -43 108 -43 l42 0 -6 -177 c-10 -322 -55 -519 -263 -1173
-47 -146 -93 -304 -102 -352 l-17 -87 -110 -20 c-287 -53 -557 -55 -832 -4
-51 9 -93 20 -93 24 0 4 18 40 39 81 39 71 169 368 226 515 27 69 29 72 54 65
14 -4 85 -7 156 -7 156 0 221 15 355 82 176 87 327 269 374 448 8 32 13 61 11
64 -6 5 -3 11 -45 -74 -73 -147 -239 -275 -421 -324 -152 -41 -273 -37 -529
18 -206 45 -331 23 -530 -94 -113 -66 -210 -95 -317 -95 -108 0 -183 18 -289
70 -102 50 -162 103 -197 173 -15 31 -27 58 -27 61 0 2 12 -2 28 -9 15 -8 52
-18 82 -24 30 -5 80 -19 110 -30 112 -41 288 -19 434 55 96 49 186 114 278
203 66 62 80 72 93 61 23 -19 30 -5 27 51 -2 56 -23 103 -51 119 -30 15 -34
13 -28 -19 6 -27 0 -35 -51 -79 -241 -207 -493 -305 -672 -262 -46 11 -54 17
-67 48 -40 97 -40 232 2 369 13 45 22 56 61 79 57 33 141 60 221 69 35 4 67
13 74 22 19 22 -1 63 -41 85 -80 44 -229 2 -319 -91 l-49 -50 -22 62 c-12 34
-33 83 -46 109 l-24 47 54 55 c114 113 263 177 623 267 114 28 228 61 253 73
28 12 94 68 171 144 140 136 172 161 263 202 93 42 168 54 314 47 247 -11 435
-90 586 -246 39 -40 39 -40 40 -125 1 -65 5 -89 17 -102 15 -15 19 -10 43 64
74 223 235 461 374 556 103 71 190 98 245 77z m-2583 -5 c0 -2 -8 -10 -17 -17
-16 -13 -17 -12 -4 4 13 16 21 21 21 13z m310 -191 c-24 -25 -46 -45 -49 -45
-3 0 15 20 39 45 24 25 46 45 49 45 3 0 -15 -20 -39 -45z m-60 -49 c0 -2 -8
-10 -17 -17 -16 -13 -17 -12 -4 4 13 16 21 21 21 13z m-132 -53 c-10 -2 -26
-2 -35 0 -10 3 -2 5 17 5 19 0 27 -2 18 -5z m-318 -27 c0 -2 -8 -10 -17 -17
-16 -13 -17 -12 -4 4 13 16 21 21 21 13z m4160 -126 c8 -5 11 -10 5 -10 -5 0
-17 5 -25 10 -8 5 -10 10 -5 10 6 0 17 -5 25 -10z m1068 -295 c20 -71 65 -130
121 -158 l51 -25 -32 -11 c-77 -27 -118 -78 -149 -186 -15 -49 -18 -54 -18
-28 -1 18 -10 57 -21 87 -24 63 -93 133 -141 143 l-31 6 48 18 c80 30 142 123
145 218 l1 26 8 -25 c4 -14 13 -43 18 -65z m-6291 -307 c-3 -8 -6 -5 -6 6 -1
11 2 17 5 13 3 -3 4 -12 1 -19z m-1009 -114 c2 -11 -4 -26 -12 -33 -31 -26
-71 14 -45 45 17 21 53 14 57 -12z m6531 -50 c15 -58 62 -117 110 -141 40 -20
41 -21 16 -27 -32 -8 -92 -61 -111 -98 -8 -16 -19 -48 -23 -71 -8 -44 -11 -41
-31 33 -15 55 -83 127 -129 136 l-31 7 49 22 c61 29 97 79 113 158 13 62 16
61 37 -19z m-4675 -43 l46 -108 -11 -84 c-10 -83 -5 -192 12 -236 10 -27 9
-27 -39 -7 -107 44 -154 154 -133 309 11 77 59 235 72 235 4 0 28 -49 53 -109z
m5310 -522 c50 -40 23 -129 -40 -129 -58 0 -95 50 -74 101 20 48 72 61 114 28z
m-6852 -254 c17 -38 -3 -75 -42 -75 -50 0 -75 65 -36 92 25 17 66 8 78 -17z
m5468 -325 c291 -97 517 -400 661 -886 l33 -112 67 -51 c97 -75 247 -234 318
-340 272 -407 316 -925 113 -1327 -120 -237 -321 -445 -585 -603 -79 -47 -267
-141 -283 -141 -4 0 -4 82 -1 182 4 140 18 275 58 573 49 358 53 406 53 590 1
164 -2 214 -18 278 -11 43 -22 80 -26 82 -4 3 -11 -35 -14 -83 -17 -213 -52
-419 -122 -702 l-45 -185 -67 -56 c-162 -136 -319 -221 -489 -265 -75 -20
-133 -27 -247 -31 l-149 -6 7 29 c3 16 9 94 13 174 5 127 3 159 -16 247 -21
97 -47 171 -84 241 -10 19 -20 32 -22 30 -2 -2 2 -42 9 -88 8 -47 17 -121 21
-165 21 -251 -98 -721 -247 -976 l-51 -86 -58 -6 c-117 -10 -420 20 -445 45
-2 2 -4 64 -5 138 -1 174 -16 341 -35 408 -8 30 -39 117 -68 195 -29 78 -64
185 -76 237 -40 165 -29 387 26 528 l14 37 -33 -37 c-94 -105 -157 -332 -142
-516 7 -98 35 -214 69 -289 29 -61 33 -59 -85 -37 -523 97 -922 377 -1108 775
-92 196 -124 351 -124 589 0 194 15 291 74 468 28 84 34 93 53 89 11 -3 71
-16 131 -31 317 -73 743 -82 1093 -21 l72 12 20 -32 c57 -93 176 -165 283
-173 l69 -5 -58 54 c-31 30 -79 87 -106 128 l-49 75 79 31 c124 50 297 137
416 209 60 36 111 66 112 66 4 0 -111 -203 -134 -237 -13 -21 -13 -23 2 -23
27 0 188 163 255 257 34 48 105 172 158 277 148 296 201 365 331 434 121 65
252 76 382 32z m976 -19 c0 -11 -4 -17 -8 -15 -4 3 -8 12 -8 20 0 8 4 14 8 14
4 0 8 -9 8 -19z m-4276 -444 c0 -2 -12 -14 -27 -28 l-28 -24 24 28 c23 25 31
32 31 24z m-2412 -38 c-3 -8 -7 -3 -11 10 -4 17 -3 21 5 13 5 -5 8 -16 6 -23z
m651 -210 c26 -69 68 -128 115 -164 37 -28 155 -74 196 -76 14 0 -5 -9 -42
-19 -75 -20 -141 -51 -176 -83 -60 -56 -114 -176 -128 -284 l-7 -58 -19 85
c-44 206 -133 298 -332 342 l-51 12 52 8 c77 12 155 44 201 84 58 50 109 156
130 274 l16 93 12 -79 c6 -43 21 -104 33 -135z m6651 -284 c14 -17 5 -51 -17
-59 -22 -9 -50 1 -57 20 -16 41 45 73 74 39z m-5662 -297 c34 -34 -6 -90 -48
-68 -20 10 -28 58 -13 73 11 11 48 8 61 -5z m5950 -723 c13 5 14 3 5 -6 -14
-14 -33 -3 -32 19 1 15 2 14 6 -1 3 -12 10 -16 21 -12z m-6506 -65 c48 -37 41
-118 -14 -146 -60 -31 -128 13 -128 83 0 71 85 109 142 63z m1737 -621 c167
-166 353 -283 589 -369 l76 -28 18 -138 c9 -77 24 -170 32 -209 8 -38 13 -71
12 -73 -7 -6 -158 54 -250 99 -134 67 -235 140 -337 246 -170 175 -282 384
-324 606 -21 113 -20 116 27 46 23 -35 94 -116 157 -180z m-989 -149 c0 -14
-6 -20 -22 -19 -19 1 -19 2 -5 6 11 3 16 11 13 19 -3 8 -1 14 4 14 6 0 10 -9
10 -20z"/>
<path d="M8698 8553 c6 -2 18 -2 25 0 6 3 1 5 -13 5 -14 0 -19 -2 -12 -5z"/>
<path d="M8355 8530 c4 -6 11 -8 16 -5 14 9 11 15 -7 15 -8 0 -12 -5 -9 -10z"/>
<path d="M8840 8526 c0 -2 7 -7 16 -10 8 -3 12 -2 9 4 -6 10 -25 14 -25 6z"/>
<path d="M8408 8473 c6 -2 18 -2 25 0 6 3 1 5 -13 5 -14 0 -19 -2 -12 -5z"/>
<path d="M6958 7313 c7 -3 16 -2 19 1 4 3 -2 6 -13 5 -11 0 -14 -3 -6 -6z"/>
<path d="M5997 7362 c-30 -32 -81 -98 -112 -146 -57 -87 -190 -354 -181 -363
8 -8 88 52 132 99 87 91 150 208 193 360 17 56 29 103 27 105 -1 2 -28 -23
-59 -55z"/>
<path d="M4679 6813 c-100 -33 -184 -123 -211 -226 -11 -41 -10 -52 3 -75 24
-43 49 -34 92 31 116 176 336 175 456 -2 23 -34 48 -61 55 -61 30 0 49 38 44
89 -15 149 -155 262 -325 260 -38 0 -89 -7 -114 -16z"/>
<path d="M4051 2722 c-2 -23 30 -155 49 -207 40 -110 40 -110 51 -95 8 12 9
10 4 -7 -4 -15 7 -43 37 -92 23 -39 46 -71 51 -71 4 0 6 -4 3 -9 -3 -4 12 -28
34 -51 22 -24 40 -46 40 -48 0 -3 12 -20 26 -39 17 -22 32 -32 41 -29 11 4 13
2 10 -9 -8 -20 105 -113 223 -183 120 -71 320 -158 320 -139 0 3 -5 29 -10 58
-6 30 -20 117 -30 193 -11 77 -21 140 -22 141 -2 1 -32 12 -68 25 -36 12 -102
40 -147 61 -45 20 -81 33 -80 27 1 -6 -3 -12 -10 -15 -7 -2 -10 3 -7 14 4 15
-7 26 -48 48 -29 16 -66 29 -83 29 -21 1 -31 7 -33 20 -4 19 -3 19 22 3 14
-10 26 -15 26 -13 0 2 -35 29 -78 59 -43 30 -102 80 -132 110 -30 31 -59 53
-65 50 -5 -4 -7 -3 -3 2 13 13 -13 37 -27 25 -8 -7 -12 -5 -12 5 0 8 4 12 9 9
13 -9 9 13 -5 25 -8 6 -18 7 -22 3 -5 -4 -5 -2 -2 4 3 6 -7 26 -22 45 -15 19
-31 41 -34 49 -4 10 -6 11 -6 2z m130 -215 c-6 -8 -7 -18 -3 -22 4 -5 1 -5 -6
-1 -10 6 -10 11 -1 22 6 8 14 14 16 14 3 0 0 -6 -6 -13z m50 -36 c-10 -7 -11
-13 -1 -32 10 -20 10 -22 -1 -12 -7 7 -13 29 -14 48 -2 34 -1 35 14 20 13 -13
14 -17 2 -24z m20 -14 c-10 -9 -11 -8 -5 6 3 10 9 15 12 12 3 -3 0 -11 -7 -18z
m-71 8 c0 -2 -6 -8 -13 -14 -10 -8 -14 -7 -14 2 0 8 6 14 14 14 7 0 13 -1 13
-2z m124 -33 c2 -4 -7 -9 -22 -10 -21 -1 -24 0 -12 8 18 12 27 12 34 2z m35
-35 c0 -8 -2 -8 -6 1 -4 9 -8 10 -18 2 -10 -8 -15 -8 -21 1 -4 7 -3 9 4 5 6
-3 13 -2 17 4 8 13 25 3 24 -13z m-88 -14 c-12 -20 -14 -14 -5 12 4 9 9 14 11
11 3 -2 0 -13 -6 -23z m123 -2 c3 -5 -1 -11 -9 -15 -9 -3 -15 0 -15 9 0 16 16
20 24 6z m-134 -92 c0 -5 -4 -9 -8 -9 -5 0 -9 7 -9 15 0 8 4 12 9 9 4 -3 8 -9
8 -15z m240 6 c0 -2 -9 -3 -19 -2 -11 0 -18 5 -15 9 4 6 34 0 34 -7z m52 -19
c7 4 8 2 4 -5 -4 -6 -12 -9 -17 -6 -5 4 -9 2 -9 -4 0 -7 -28 -8 -37 -1 -2 2
-7 3 -12 4 -18 2 -21 13 -3 13 9 0 20 -5 24 -11 5 -6 8 -1 8 12 0 21 1 22 16
8 8 -9 20 -13 26 -10z m-202 -16 c0 -5 -7 -7 -15 -4 -8 4 -15 8 -15 10 0 2 7
4 15 4 8 0 15 -4 15 -10z m309 -53 c0 -9 -2 -8 -6 1 -2 6 -10 9 -15 6 -7 -4
-8 -2 -4 5 9 13 26 5 25 -12z m-67 -29 c-8 -8 -9 -4 -5 13 4 13 8 18 11 10 2
-7 -1 -18 -6 -23z m177 -11 c8 -10 7 -14 -4 -14 -8 0 -15 6 -15 14 0 7 2 13 4
13 2 0 9 -6 15 -13z m-404 -27 c3 -5 1 -10 -4 -10 -6 0 -11 5 -11 10 0 6 2 10
4 10 3 0 8 -4 11 -10z m500 -10 c3 -5 2 -10 -4 -10 -5 0 -13 5 -16 10 -3 6 -2
10 4 10 5 0 13 -4 16 -10z m-350 -50 c3 -5 1 -10 -4 -10 -6 0 -11 5 -11 10 0
6 2 10 4 10 3 0 8 -4 11 -10z m206 -57 c13 -16 12 -17 -3 -4 -10 7 -18 15 -18
17 0 8 8 3 21 -13z m164 7 c-3 -5 1 -21 10 -34 21 -31 16 -70 -8 -72 -12 -1
-13 -1 -2 3 19 6 19 42 -1 71 -13 19 -12 42 2 42 3 0 2 -4 -1 -10z m-32 -84
c4 -10 1 -13 -8 -9 -8 3 -12 9 -9 14 7 12 11 11 17 -5z"/>
</g>
</svg>
